<svg width="137" height="48" viewBox="0 0 137 48" fill="none" xmlns="http://www.w3.org/2000/svg">
<path d="M0 47.4516V33.7367L5.47176 28.5259L12.441 35.6573L0 47.4516Z" fill="#1E1C1E"/>
<path opacity="0.78" d="M17.133 21.7637L14.6773 24.0001L23.4838 32.6402L12.8601 42.9786V48.0001L26 35.2564V30.3192L17.133 21.7637Z" fill="#FAF1EB"/>
<path opacity="0.78" d="M23.7639 0L17.6133 6.03429V21.3361L23.7199 15.4749L23.7639 0Z" fill="#FAF1EB"/>
<path d="M16.9139 35.7942L21.8064 30.903L14.6665 23.995L17.6128 21.3363V6.03418L2.23633 21.0225L16.9139 35.7942Z" fill="#1E1C1E"/>
<path d="M0 14.0132V18.9259L14.2582 5.14544V0.274414L0 14.0132Z" fill="#1E1C1E"/>
<path d="M48.52 22.88C50.1467 22.88 51.5867 23.1733 52.84 23.76C54.0933 24.3467 55.0533 25.16 55.72 26.2C56.4133 27.2133 56.76 28.3733 56.76 29.68C56.76 31.0933 56.3867 32.3733 55.64 33.52C54.92 34.64 53.92 35.5333 52.64 36.2C51.3867 36.84 49.9733 37.16 48.4 37.16C47.5467 37.16 46.6133 37.12 45.6 37.04C45.2267 37.0133 44.7867 36.9867 44.28 36.96C43.7733 36.9333 43.2 36.92 42.56 36.92L39.76 36.96C39.2533 36.9867 38.5733 37 37.72 37C37.64 37 37.6 36.92 37.6 36.76C37.6 36.6 37.64 36.52 37.72 36.52C38.6533 36.52 39.3467 36.4533 39.8 36.32C40.2533 36.16 40.56 35.8933 40.72 35.52C40.9067 35.1467 41 34.56 41 33.76V15.24C41 14.44 40.9067 13.8533 40.72 13.48C40.56 13.1067 40.2533 12.8533 39.8 12.72C39.3733 12.56 38.6933 12.48 37.76 12.48C37.7067 12.48 37.68 12.4 37.68 12.24C37.68 12.08 37.7067 12 37.76 12L39.76 12.04C40.9333 12.0933 41.8667 12.12 42.56 12.12C43.3067 12.12 44.0933 12.08 44.92 12C45.2133 11.9733 45.56 11.9467 45.96 11.92C46.3867 11.8933 46.84 11.88 47.32 11.88C49.6133 11.88 51.3467 12.36 52.52 13.32C53.72 14.2533 54.32 15.52 54.32 17.12C54.32 18.6133 53.76 19.92 52.64 21.04C51.52 22.16 50 22.9467 48.08 23.4L48.52 22.88ZM46.56 12.56C45.92 12.56 45.4267 12.6267 45.08 12.76C44.76 12.8933 44.52 13.16 44.36 13.56C44.2267 13.9333 44.16 14.52 44.16 15.32V23.16L42.84 22.84C43.9867 22.92 45.0133 22.96 45.92 22.96C47.68 22.96 49 22.4533 49.88 21.44C50.76 20.4267 51.2 19.0933 51.2 17.44C51.2 15.92 50.8133 14.7333 50.04 13.88C49.2933 13 48.1333 12.56 46.56 12.56ZM47.76 36.36C49.6533 36.36 51.0533 35.8667 51.96 34.88C52.8933 33.8933 53.36 32.48 53.36 30.64C53.36 28.6133 52.8 26.9867 51.68 25.76C50.56 24.5333 48.9733 23.9067 46.92 23.88C45.5867 23.8267 44.2667 23.8933 42.96 24.08L44.16 23.64V33.76C44.16 34.4267 44.2533 34.9467 44.44 35.32C44.6267 35.6667 44.9733 35.9333 45.48 36.12C45.9867 36.28 46.7467 36.36 47.76 36.36ZM70.2525 37C70.1458 37 70.0925 36.92 70.0925 36.76C70.0925 36.6 70.1458 36.52 70.2525 36.52C71.1592 36.52 71.8392 36.44 72.2925 36.28C72.7458 36.12 73.0792 35.8533 73.2925 35.48C73.5058 35.08 73.6792 34.48 73.8125 33.68L77.0925 15.24C77.1992 14.5467 77.2525 14.1067 77.2525 13.92C77.2525 13.36 77.0925 12.9867 76.7725 12.8C76.4525 12.5867 75.8658 12.48 75.0125 12.48C74.9058 12.48 74.8525 12.4 74.8525 12.24C74.8525 12.08 74.9058 12 75.0125 12L76.6925 12.04C77.7058 12.0933 78.5192 12.12 79.1325 12.12C79.7992 12.12 80.6658 12.0933 81.7325 12.04L83.4925 12C83.5992 12 83.6525 12.08 83.6525 12.24C83.6525 12.4 83.5992 12.48 83.4925 12.48C82.6125 12.48 81.9325 12.56 81.4525 12.72C80.9992 12.88 80.6525 13.16 80.4125 13.56C80.1992 13.9333 80.0258 14.52 79.8925 15.32L76.6125 33.84C76.5325 34.32 76.4925 34.7333 76.4925 35.08C76.4925 35.6667 76.6792 36.0533 77.0525 36.24C77.4258 36.4267 78.1325 36.52 79.1725 36.52C79.2792 36.52 79.3325 36.6 79.3325 36.76C79.3325 36.92 79.2792 37 79.1725 37C78.3725 37 77.7458 36.9867 77.2925 36.96L74.8525 36.92L72.0525 36.96C71.6258 36.9867 71.0258 37 70.2525 37ZM68.8925 27.16C67.1592 27.16 65.7992 26.7067 64.8125 25.8C63.8258 24.8667 63.3325 23.6133 63.3325 22.04C63.3325 21.5867 63.3725 21.1067 63.4525 20.6L64.4125 15.16C64.4925 14.6267 64.5325 14.2133 64.5325 13.92C64.5325 13.3333 64.3592 12.9467 64.0125 12.76C63.6658 12.5733 63.0258 12.48 62.0925 12.48C62.0125 12.48 61.9725 12.4 61.9725 12.24C61.9725 12.08 62.0125 12 62.0925 12L63.4125 12.04C64.2658 12.0933 65.1992 12.12 66.2125 12.12C67.0925 12.12 68.0392 12.0933 69.0525 12.04C69.3992 12.0133 69.8392 12 70.3725 12C70.4525 12 70.4925 12.08 70.4925 12.24C70.4925 12.4 70.4525 12.48 70.3725 12.48C69.5992 12.48 68.9992 12.5733 68.5725 12.76C68.1725 12.92 67.8658 13.2 67.6525 13.6C67.4658 14 67.3058 14.6133 67.1725 15.44L66.5325 19.36C66.3992 20.0267 66.3325 20.7333 66.3325 21.48C66.3325 22.7867 66.6392 23.76 67.2525 24.4C67.8925 25.0133 68.8658 25.32 70.1725 25.32C72.0125 25.32 73.9858 24.84 76.0925 23.88L76.3325 24.28C73.7458 26.2 71.2658 27.16 68.8925 27.16ZM90.21 25.68H101.09L101.37 26.56H89.73L90.21 25.68ZM110.41 36.52C110.543 36.52 110.61 36.6 110.61 36.76C110.61 36.92 110.543 37 110.41 37C109.903 37 109.117 36.9733 108.05 36.92C106.93 36.8667 106.13 36.84 105.65 36.84C105.037 36.84 104.277 36.8667 103.37 36.92C102.463 36.9733 101.783 37 101.33 37C101.223 37 101.17 36.92 101.17 36.76C101.17 36.6 101.223 36.52 101.33 36.52C102.237 36.52 102.89 36.44 103.29 36.28C103.69 36.0933 103.89 35.7733 103.89 35.32C103.89 34.8667 103.69 34.24 103.29 33.44L94.69 15.56L95.97 13.64L88.17 31.72C87.7967 32.6267 87.61 33.3733 87.61 33.96C87.61 34.8133 87.9433 35.4533 88.61 35.88C89.2767 36.3067 90.2367 36.52 91.49 36.52C91.6233 36.52 91.69 36.6 91.69 36.76C91.69 36.92 91.6233 37 91.49 37C91.01 37 90.3167 36.9733 89.41 36.92C88.3967 36.8667 87.5167 36.84 86.77 36.84C86.0767 36.84 85.25 36.8667 84.29 36.92C83.4367 36.9733 82.7433 37 82.21 37C82.1033 37 82.05 36.92 82.05 36.76C82.05 36.6 82.1033 36.52 82.21 36.52C82.9567 36.52 83.5833 36.3733 84.09 36.08C84.6233 35.7867 85.13 35.28 85.61 34.56C86.09 33.84 86.6367 32.7733 87.25 31.36L95.77 11.72C95.7967 11.64 95.89 11.6 96.05 11.6C96.21 11.5733 96.3033 11.6133 96.33 11.72L105.93 31.52C106.863 33.4667 107.637 34.7867 108.25 35.48C108.89 36.1733 109.61 36.52 110.41 36.52ZM126.703 11.56C127.93 11.56 129.197 11.68 130.503 11.92C131.81 12.1333 132.85 12.44 133.623 12.84C133.837 12.9467 133.97 13.0667 134.023 13.2C134.103 13.3067 134.17 13.5067 134.223 13.8L134.663 18.6C134.663 18.68 134.597 18.7333 134.463 18.76C134.33 18.7867 134.25 18.7467 134.223 18.64C133.53 16.5867 132.397 15.0533 130.823 14.04C129.25 13 127.357 12.48 125.143 12.48C123.197 12.48 121.503 12.9333 120.063 13.84C118.623 14.72 117.517 15.9733 116.743 17.6C115.997 19.2267 115.623 21.1067 115.623 23.24C115.623 25.72 116.09 28 117.023 30.08C117.983 32.16 119.277 33.8133 120.903 35.04C122.557 36.24 124.37 36.84 126.343 36.84C130.183 36.84 132.93 34.6533 134.583 30.28C134.583 30.2 134.65 30.16 134.783 30.16C134.837 30.16 134.89 30.1867 134.943 30.24C135.023 30.2667 135.063 30.2933 135.063 30.32L134.503 35.12C134.45 35.44 134.383 35.6533 134.303 35.76C134.25 35.84 134.103 35.9333 133.863 36.04C131.41 37 128.903 37.48 126.343 37.48C123.117 37.48 120.423 36.84 118.263 35.56C116.103 34.2533 114.517 32.6 113.503 30.6C112.49 28.6 111.983 26.5067 111.983 24.32C111.983 21.84 112.663 19.64 114.023 17.72C115.41 15.7733 117.223 14.2667 119.463 13.2C121.73 12.1067 124.143 11.56 126.703 11.56Z" fill="#FAF1EB"/>
</svg>
