<svg width="80" height="80" viewBox="0 0 80 80" fill="none" xmlns="http://www.w3.org/2000/svg">
<path d="M25.5998 4.80005C14.1318 4.80005 4.7998 14.132 4.7998 25.6V54.4001C4.7998 65.8681 14.1318 75.2001 25.5998 75.2001H54.3998C65.8678 75.2001 75.1998 65.8681 75.1998 54.4001V25.6C75.1998 14.132 65.8678 4.80005 54.3998 4.80005H25.5998ZM25.5998 8.00005H54.3998C64.1382 8.00005 71.9998 15.8617 71.9998 25.6V54.4001C71.9998 64.1384 64.1382 72.0001 54.3998 72.0001H25.5998C15.8614 72.0001 7.9998 64.1384 7.9998 54.4001V25.6C7.9998 15.8617 15.8614 8.00005 25.5998 8.00005ZM59.1998 17.6C58.3511 17.6 57.5372 17.9372 56.9371 18.5373C56.3369 19.1374 55.9998 19.9514 55.9998 20.8C55.9998 21.6487 56.3369 22.4627 56.9371 23.0628C57.5372 23.6629 58.3511 24 59.1998 24C60.0485 24 60.8624 23.6629 61.4626 23.0628C62.0627 22.4627 62.3998 21.6487 62.3998 20.8C62.3998 19.9514 62.0627 19.1374 61.4626 18.5373C60.8624 17.9372 60.0485 17.6 59.1998 17.6ZM39.9998 22.4C30.2985 22.4 22.3998 30.2988 22.3998 40C22.3998 49.7013 30.2985 57.6 39.9998 57.6C49.7011 57.6 57.5998 49.7013 57.5998 40C57.5998 30.2988 49.7011 22.4 39.9998 22.4ZM39.9998 25.6C47.9717 25.6 54.3998 32.0282 54.3998 40C54.3998 47.9719 47.9717 54.4001 39.9998 54.4001C32.028 54.4001 25.5998 47.9719 25.5998 40C25.5998 32.0282 32.028 25.6 39.9998 25.6Z" fill=""/>
</svg>