<svg width="80" height="80" viewBox="0 0 80 80" fill="" xmlns="http://www.w3.org/2000/svg">
<path d="M70.0058 10.2437C68.0575 10.1584 66.0712 10.7406 64.4339 11.95L60.0401 15.1937L39.9995 30.0094L20.1464 15.3344C19.8697 15.064 19.5045 14.903 19.1183 14.8812H19.5183L15.5745 11.9625C13.9362 10.7501 11.947 10.1646 9.9964 10.25C8.04583 10.3354 6.13543 11.0903 4.65265 12.5531C2.76903 14.4102 1.59952 17.0077 1.59952 19.8562V25.35C1.5762 25.5064 1.5762 25.6654 1.59952 25.8219V63.2C1.59952 66.2739 4.12562 68.8 7.19952 68.8H19.1995C19.6239 68.7999 20.0308 68.6314 20.3308 68.3313C20.6309 68.0313 20.7995 67.6243 20.7995 67.2V40.5969L39.0495 54.0875C39.3247 54.2905 39.6576 54.4 39.9995 54.4C40.3414 54.4 40.6744 54.2905 40.9495 54.0875L59.1995 40.5969V67.2C59.1996 67.6243 59.3681 68.0313 59.6682 68.3313C59.9682 68.6314 60.3752 68.7999 60.7995 68.8H72.7995C75.8734 68.8 78.3995 66.2739 78.3995 63.2V25.7906C78.4176 25.6527 78.4176 25.5129 78.3995 25.375V19.8562C78.3995 17.0427 77.2642 14.4572 75.4058 12.5969C75.3521 12.5431 75.3341 12.5283 75.3558 12.55C75.3527 12.5468 75.3495 12.5437 75.3464 12.5406C73.8639 11.0811 71.9541 10.3291 70.0058 10.2437ZM69.8308 13.4406C71.0409 13.488 72.214 13.947 73.1026 14.8219C73.1329 14.8517 73.155 14.8743 73.1401 14.8594C74.4145 16.135 75.1995 17.9018 75.1995 19.8562V24.7937L62.3995 34.2531V17.6C62.4002 17.5457 62.3981 17.4915 62.3933 17.4375L66.3339 14.525H66.337C67.3748 13.7583 68.6207 13.3932 69.8308 13.4406ZM10.1714 13.45C11.3828 13.4026 12.6329 13.7659 13.6714 14.5344L17.6058 17.4437C17.6011 17.4957 17.5991 17.5478 17.5995 17.6V34.2531L4.79952 24.7937V19.8562C4.79952 17.8792 5.60233 16.1101 6.89952 14.8312C7.78793 13.9548 8.95996 13.4974 10.1714 13.45ZM59.1995 19.7937V36.6187L39.9995 50.8094L20.7995 36.6187V19.7969L39.0495 33.2875C39.3247 33.4905 39.6576 33.6 39.9995 33.6C40.3414 33.6 40.6744 33.4905 40.9495 33.2875L59.1995 19.7937ZM4.79952 28.7719L17.5995 38.2344V65.6H7.19952C5.85422 65.6 4.79952 64.5453 4.79952 63.2V28.7719ZM75.1995 28.7719V63.2C75.1995 64.5453 74.1448 65.6 72.7995 65.6H62.3995V38.2344L75.1995 28.7719Z" fill=""/>
</svg>
