<svg width="71" height="65" viewBox="0 0 71 65" fill="none" xmlns="http://www.w3.org/2000/svg">
<path d="M69.3193 1.4832C68.1193 0.465604 66.2345 0.320004 64.2857 1.1024H64.2825C62.2329 1.9248 6.26492 25.9312 3.98652 26.912C3.57212 27.056 -0.0470777 28.4064 0.325722 31.4144C0.658522 34.1264 3.56732 35.2496 3.92252 35.3792L18.1513 40.2512C19.0953 43.3936 22.5753 54.9872 23.3449 57.464C23.8249 59.008 24.6073 61.0368 25.9785 61.4544C27.1817 61.9184 28.3785 61.4944 29.1529 60.8864L37.8521 52.8176L51.8953 63.7696L52.2297 63.9696C53.1833 64.392 54.0969 64.6032 54.9689 64.6032C55.6425 64.6032 56.2889 64.4768 56.9065 64.224C59.0105 63.36 59.8521 61.3552 59.9401 61.128L70.4297 6.6048C71.0697 3.6928 70.1801 2.2112 69.3193 1.4832ZM30.7001 42.2L25.9001 55L21.1001 39L57.9001 11.8L30.7001 42.2Z" fill=""/>
</svg>
