<svg width="74" height="57" viewBox="0 0 74 57" fill="none" xmlns="http://www.w3.org/2000/svg">
<path d="M16.2002 26.4448V26.424V5.62235L16.0082 5.47995H15.9922L11.6242 2.24795C8.9522 0.263954 5.1442 0.359955 2.7762 2.69595C1.1922 4.26395 0.200195 6.43995 0.200195 8.85595V14.6192L16.2002 26.4448ZM57.8002 26.424V26.4448L73.8002 14.6192V8.85595C73.8002 6.47195 72.8402 4.29595 71.2722 2.72795C68.9362 0.396754 65.2482 0.123154 62.5938 2.08315L57.9922 5.47995L57.8002 5.62235V26.424ZM19.4002 28.7888L36.0498 41.096C36.6146 41.5136 37.3874 41.5136 37.9522 41.096L54.6002 28.7888V7.98715L37.0002 21L19.4002 7.98715V28.7888ZM57.8002 30.4224V54.6C57.8002 55.4832 58.517 56.2 59.4002 56.2H69.8002C72.0098 56.2 73.8002 54.4096 73.8002 52.2V18.5952L57.8002 30.4224ZM16.2002 30.4224L0.200195 18.5952V52.2C0.200195 54.4096 1.9906 56.2 4.2002 56.2H14.6002C15.4834 56.2 16.2002 55.4832 16.2002 54.6V30.4224Z" fill=""/>
</svg>
