<svg width="72" height="72" viewBox="0 0 72 72" fill="none" xmlns="http://www.w3.org/2000/svg">
<path d="M21.5998 0.800049C10.1278 0.800049 0.799805 10.128 0.799805 21.6V50.4001C0.799805 61.8721 10.1278 71.2001 21.5998 71.2001H50.3998C61.8718 71.2001 71.1998 61.8721 71.1998 50.4001V21.6C71.1998 10.128 61.8718 0.800049 50.3998 0.800049H21.5998ZM55.1998 13.6C56.9598 13.6 58.3998 15.04 58.3998 16.8C58.3998 18.56 56.9598 20 55.1998 20C53.4398 20 51.9998 18.56 51.9998 16.8C51.9998 15.04 53.4398 13.6 55.1998 13.6ZM35.9998 18.4C45.7118 18.4 53.5998 26.288 53.5998 36C53.5998 45.7121 45.7118 53.6 35.9998 53.6C26.2878 53.6 18.3998 45.7121 18.3998 36C18.3998 26.288 26.2878 18.4 35.9998 18.4ZM35.9998 21.6C28.0638 21.6 21.5998 28.064 21.5998 36C21.5998 43.9361 28.0638 50.4001 35.9998 50.4001C43.9358 50.4001 50.3998 43.9361 50.3998 36C50.3998 28.064 43.9358 21.6 35.9998 21.6Z" fill=""/>
</svg>
