<svg width="81" height="80" viewBox="0 0 81 80" fill="" xmlns="http://www.w3.org/2000/svg">
<path d="M71.5029 9.57813C70.7236 9.61232 69.9651 9.82921 69.281 10.1031C68.604 10.3752 64.706 12.039 58.9498 14.5C53.1936 16.9611 45.7109 20.1659 38.2935 23.3438C23.4588 29.6995 8.88103 35.9531 8.88103 35.9531L8.98728 35.9125C8.98728 35.9125 8.10744 36.2066 7.21541 36.8281C6.76939 37.1389 6.28955 37.5401 5.89666 38.125C5.50377 38.7099 5.21654 39.5389 5.32478 40.4156C5.70498 43.4952 8.89666 44.3688 8.89666 44.3688L8.90916 44.375L23.1529 49.25C23.5161 50.4615 27.4731 63.6687 28.3435 66.4656C28.8243 68.012 29.2742 68.904 29.7435 69.5125C29.9784 69.817 30.2245 70.0527 30.4967 70.225C30.6048 70.2935 30.7185 70.3448 30.831 70.3906H30.8373C30.8511 70.3967 30.8641 70.3973 30.8779 70.4031L30.8404 70.3938C30.8666 70.4043 30.8924 70.4221 30.9185 70.4313C30.9693 70.4491 31.0004 70.4484 31.0654 70.4625C32.6967 71.0321 34.0467 69.975 34.0467 69.975L34.1029 69.9313L42.8529 61.8156L57.0529 72.8875L57.231 72.9688C59.7166 74.0723 61.9643 73.4566 63.2092 72.4438C64.454 71.4309 64.9435 70.125 64.9435 70.125L64.9967 69.9875L75.431 15.6031C75.698 14.3864 75.736 13.3347 75.4842 12.3844C75.2324 11.434 74.6206 10.6079 73.8529 10.15C73.0852 9.69211 72.2822 9.54394 71.5029 9.57813ZM71.5873 12.8313C71.9038 12.8166 72.1383 12.8528 72.2123 12.8969C72.2862 12.941 72.3194 12.9352 72.3904 13.2031C72.4614 13.4711 72.4998 14.0355 72.306 14.9188L72.2998 14.9375L61.9248 69.0063C61.9002 69.0607 61.684 69.5609 61.1904 69.9625C60.6868 70.3723 60.1268 70.6921 58.6404 70.0688L43.1123 57.9594L42.6748 57.6156L42.6654 57.625L38.0217 54.1406L64.1185 23.4375C64.3191 23.2022 64.4471 22.9138 64.4872 22.6073C64.5274 22.3007 64.4778 21.9891 64.3446 21.7101C64.2114 21.4312 64.0002 21.1967 63.7366 21.0352C63.473 20.8737 63.1682 20.792 62.8592 20.8C62.5572 20.8079 62.2635 20.901 62.0123 21.0688L24.2498 46.2438L9.98416 41.3594C9.98416 41.3594 8.56759 40.5711 8.49978 40.0219C8.49602 39.9914 8.4793 40.019 8.55291 39.9094C8.62652 39.7998 8.81155 39.6148 9.04353 39.4531C9.5075 39.1299 10.0373 38.9344 10.0373 38.9344L10.0904 38.9156L10.1435 38.8938C10.1435 38.8938 24.722 32.6398 39.556 26.2844C46.973 23.1067 54.4544 19.9042 60.2092 17.4438C65.9625 14.9839 70.1197 13.2134 70.4717 13.0719C70.8724 12.9114 71.2708 12.8459 71.5873 12.8313ZM54.281 30.0688L34.4904 53.3531L34.481 53.3625C34.4501 53.3997 34.4209 53.4383 34.3935 53.4781C34.3621 53.5214 34.3329 53.5663 34.306 53.6125C34.1948 53.8012 34.1236 54.0108 34.0967 54.2281C34.0966 54.2323 34.0966 54.2365 34.0967 54.2406L31.5185 65.8344C31.4757 65.7091 31.4457 65.6633 31.3998 65.5156V65.5125C30.5809 62.8814 26.8476 50.4258 26.331 48.7031L54.281 30.0688ZM36.7248 57.1688L40.281 59.8375L35.056 64.6813L36.7248 57.1688Z" fill=""/>
</svg>
